<?xml version="1.0" encoding="UTF-8"?>
<svg version="1.1" viewBox="0 0 16 16" xmlns="http://www.w3.org/2000/svg" xmlns:cc="http://creativecommons.org/ns#" xmlns:dc="http://purl.org/dc/elements/1.1/" xmlns:rdf="http://www.w3.org/1999/02/22-rdf-syntax-ns#">
  <metadata>
    <rdf:RDF>
      <cc:Work rdf:about="">
        <dc:format>image/svg+xml</dc:format>
        <dc:type rdf:resource="http://purl.org/dc/dcmitype/StillImage"/>
        <dc:title/>
      </cc:Work>
    </rdf:RDF>
  </metadata>
  <path d="m10 2c-2.2091 0-4 1.7909-4 4s1.7909 4 4 4c2.2091 0 4-1.7909 4-4s-1.7909-4-4-4zm0 2c1.1046 0 2 0.89543 2 2s-0.89543 2-2 2c-1.1046 0-2-0.89543-2-2s0.89543-2 2-2z" fill="#bebebe"/>
  <rect transform="matrix(.70711 .70711 -.70711 .70711 0 0)" x="10.314" y=".069781" width="2" height="8" rx="1" ry="1" fill="#bebebe"/>
  <rect y="3" width="5" height="1" fill="#bebebe"/>
  <rect y="5" width="4" height="1" fill="#bebebe"/>
  <rect y="7" width="4" height="1" fill="#bebebe"/>
  <rect y="9" width="3" height="1" fill="#bebebe"/>
  <rect y="11" width="2" height="1" fill="#bebebe"/>
  <rect y="13" width="1" height="1" fill="#bebebe"/>
  <rect x="6" y="13" width="10" height="1" fill="#bebebe"/>
  <rect x="8" y="11" width="8" height="1" fill="#bebebe"/>
  <rect x="14" y="9" width="2" height="1" fill="#bebebe"/>
  <rect x="15" y="7" width="1" height="1" fill="#bebebe"/>
  <rect x="15" y="5" width="1" height="1" fill="#bebebe"/>
  <rect x="15" y="3" width="1" height="1" fill="#bebebe"/>
</svg>
