<?xml version="1.0" encoding="UTF-8"?>
<!-- Created with Inkscape (http://www.inkscape.org/) -->
<svg version="1.1" viewBox="0 0 16 16" xmlns="http://www.w3.org/2000/svg" xmlns:cc="http://creativecommons.org/ns#" xmlns:dc="http://purl.org/dc/elements/1.1/" xmlns:rdf="http://www.w3.org/1999/02/22-rdf-syntax-ns#">
  <metadata>
    <rdf:RDF>
      <cc:Work rdf:about="">
        <dc:format>image/svg+xml</dc:format>
        <dc:type rdf:resource="http://purl.org/dc/dcmitype/StillImage"/>
        <dc:title/>
      </cc:Work>
    </rdf:RDF>
  </metadata>
  <g transform="translate(0 -1036.4)" fill="#bebebe">
    <path d="m1 1041.4c-0.554 0-1 0.446-1 1v7c0 0.554 0.446 1 1 1h14c0.554 0 1-0.446 1-1v-7c0-0.554-0.446-1-1-1h-14zm3.5 2c1.3807 0 2.5 1.1193 2.5 2.5s-1.1193 2.5-2.5 2.5c-1.3807 0-2.5-1.1193-2.5-2.5s1.1193-2.5 2.5-2.5zm5 1h4c0.277 0 0.5 0.223 0.5 0.5s-0.223 0.5-0.5 0.5h-4c-0.277 0-0.5-0.223-0.5-0.5s0.223-0.5 0.5-0.5zm0 2h4c0.277 0 0.5 0.223 0.5 0.5s-0.223 0.5-0.5 0.5h-4c-0.277 0-0.5-0.223-0.5-0.5s0.223-0.5 0.5-0.5z"/>
    <rect transform="matrix(.70711 -.70711 .70711 .70711 0 0)" x="-732.05" y="742.01" width="7" height="1" rx=".5" ry=".5"/>
    <rect transform="matrix(.70711 .70711 .70711 -.70711 0 0)" x="736.18" y="-731.87" width="7" height="1" rx=".5" ry=".5"/>
  </g>
</svg>
