<?xml version="1.0" encoding="UTF-8" standalone="no"?>
<svg
   xmlns:dc="http://purl.org/dc/elements/1.1/"
   xmlns:cc="http://creativecommons.org/ns#"
   xmlns:rdf="http://www.w3.org/1999/02/22-rdf-syntax-ns#"
   xmlns:svg="http://www.w3.org/2000/svg"
   xmlns="http://www.w3.org/2000/svg"
   xmlns:sodipodi="http://sodipodi.sourceforge.net/DTD/sodipodi-0.dtd"
   xmlns:inkscape="http://www.inkscape.org/namespaces/inkscape"
   width="16"
   viewBox="0 0 16 16"
   height="16"
   id="svg2"
   version="1.1"
   inkscape:version="0.48.5 r10040"
   sodipodi:docname="recently-played.svg">
  <metadata
     id="metadata22">
    <rdf:RDF>
      <cc:Work
         rdf:about="">
        <dc:format>image/svg+xml</dc:format>
        <dc:type
           rdf:resource="http://purl.org/dc/dcmitype/StillImage" />
        <dc:title></dc:title>
      </cc:Work>
    </rdf:RDF>
  </metadata>
  <defs
     id="defs20" />
  <sodipodi:namedview
     pagecolor="#ffffff"
     bordercolor="#666666"
     borderopacity="1"
     objecttolerance="10"
     gridtolerance="10"
     guidetolerance="10"
     inkscape:pageopacity="0"
     inkscape:pageshadow="2"
     inkscape:window-width="1920"
     inkscape:window-height="1052"
     id="namedview18"
     showgrid="true"
     inkscape:zoom="44.704928"
     inkscape:cx="12.847053"
     inkscape:cy="8.0006788"
     inkscape:window-x="0"
     inkscape:window-y="28"
     inkscape:window-maximized="1"
     inkscape:current-layer="svg2">
    <inkscape:grid
       type="xygrid"
       id="grid2999" />
  </sodipodi:namedview>
  <path
     style="fill:#bebebe"
     d="M 1 0 L 1 5 L 6 5 L 4.28125 3.28125 C 5.3038891 2.4783825 6.599253 2 8 2 C 11.313708 2 14 4.6862915 14 8 C 14 8.3380878 13.959989 8.677161 13.90625 9 L 15.9375 9 C 15.978667 8.6711678 16 8.3399903 16 8 C 16 3.581722 12.418278 0 8 0 C 6.0431279 0 4.2338051 0.6769384 2.84375 1.84375 L 1 0 z M 7.90625 2.96875 A 1.0001 1.0001 0 0 0 7.78125 3 A 1.0001 1.0001 0 0 0 7 4 L 7 7.6875 A 1.0001 1.0001 0 0 0 7 7.78125 A 1.0001 1.0001 0 0 0 7.125 8.53125 A 1.0001 1.0001 0 0 0 7.15625 8.5625 A 1.0001 1.0001 0 0 0 7.1875 8.625 A 1.0001 1.0001 0 0 0 7.21875 8.65625 A 1.0001 1.0001 0 0 0 7.25 8.6875 A 1.0001 1.0001 0 0 0 7.28125 8.71875 A 1.0001 1.0001 0 0 0 7.3125 8.75 A 1.0001 1.0001 0 0 0 7.375 8.78125 A 1.0001 1.0001 0 0 0 7.40625 8.8125 A 1.0001 1.0001 0 0 0 7.4375 8.84375 A 1.0001 1.0001 0 0 0 7.5 8.875 A 1.0001 1.0001 0 0 0 7.625 8.9375 L 9 9.75 L 9 9 L 11.46875 9 A 1.0077822 1.0077822 0 0 0 11.09375 8.625 L 9 7.40625 L 9 4 A 1.0001 1.0001 0 0 0 7.90625 2.96875 z M 0.25 6 C 0.0862956 6.637743 0 7.31119 0 8 C 0 12.418278 3.5817219 16 8 16 C 8.3399903 16 8.6711678 15.978667 9 15.9375 L 9 13.90625 C 8.6771611 13.959989 8.3380878 14 8 14 C 4.6862914 14 2 11.313708 2 8 C 2 7.299289 2.1229842 6.625135 2.34375 6 L 0.25 6 z "
     id="path3862" />
  <path
     style="fill:#bebebe;fill-opacity:1;stroke:none"
     d="m 11,10 0,6 5,-3 z"
     id="path3874"
     inkscape:connector-curvature="0"
     sodipodi:nodetypes="cccc" />
</svg>
