<?xml version="1.0" encoding="UTF-8"?>
<svg version="1.1" viewBox="0 0 16 16" xmlns="http://www.w3.org/2000/svg" xmlns:cc="http://creativecommons.org/ns#" xmlns:dc="http://purl.org/dc/elements/1.1/" xmlns:rdf="http://www.w3.org/1999/02/22-rdf-syntax-ns#">
  <metadata>
    <rdf:RDF>
      <cc:Work rdf:about="">
        <dc:format>image/svg+xml</dc:format>
        <dc:type rdf:resource="http://purl.org/dc/dcmitype/StillImage"/>
        <dc:title/>
      </cc:Work>
    </rdf:RDF>
  </metadata>
  <path d="m1 0v5h5l-1.7188-1.7188c1.0226-0.80287 2.318-1.2812 3.7188-1.2812 3.3137 0 6 2.6863 6 6 0 0.33809-0.040011 0.67716-0.09375 1h2.0312c0.041167-0.32883 0.0625-0.66001 0.0625-1 0-4.4183-3.5817-8-8-8-1.9569 0-3.7662 0.67694-5.1562 1.8438l-1.8438-1.8438zm6.9062 2.9688a1.0001 1.0001 0 0 0-0.125 0.03125 1.0001 1.0001 0 0 0-0.78125 1v3.6875a1.0001 1.0001 0 0 0 0 0.09375 1.0001 1.0001 0 0 0 0.125 0.75 1.0001 1.0001 0 0 0 0.03125 0.03125 1.0001 1.0001 0 0 0 0.03125 0.0625 1.0001 1.0001 0 0 0 0.03125 0.03125 1.0001 1.0001 0 0 0 0.03125 0.03125 1.0001 1.0001 0 0 0 0.03125 0.03125 1.0001 1.0001 0 0 0 0.03125 0.03125 1.0001 1.0001 0 0 0 0.0625 0.03125 1.0001 1.0001 0 0 0 0.03125 0.03125 1.0001 1.0001 0 0 0 0.03125 0.03125 1.0001 1.0001 0 0 0 0.0625 0.03125 1.0001 1.0001 0 0 0 0.125 0.0625l1.375 0.8125v-0.75h2.4688a1.0078 1.0078 0 0 0-0.375-0.375l-2.0938-1.2188v-3.4062a1.0001 1.0001 0 0 0-1.0938-1.0312zm-7.6562 3.0312c-0.1637 0.63774-0.25 1.3112-0.25 2 0 4.4183 3.5817 8 8 8 0.33999 0 0.67117-0.021333 1-0.0625v-2.0312c-0.32284 0.053739-0.66191 0.09375-1 0.09375-3.3137 0-6-2.6863-6-6 0-0.70071 0.12298-1.3749 0.34375-2h-2.0938z" fill="#bebebe"/>
  <path d="m11 10v6l5-3z" fill="#bebebe"/>
</svg>
