<?xml version="1.0" encoding="UTF-8"?>
<svg id="LastFM_alt" version="1.1" viewBox="0 0 16 16" xmlns="http://www.w3.org/2000/svg" xmlns:cc="http://creativecommons.org/ns#" xmlns:dc="http://purl.org/dc/elements/1.1/" xmlns:rdf="http://www.w3.org/1999/02/22-rdf-syntax-ns#">
  <metadata>
    <rdf:RDF>
      <cc:Work rdf:about="">
        <dc:format>image/svg+xml</dc:format>
        <dc:type rdf:resource="http://purl.org/dc/dcmitype/StillImage"/>
      </cc:Work>
    </rdf:RDF>
  </metadata>
  <path d="m14.125 9.6091c0 1.3376-1.148 2.3466-2.6703 2.3466-1.2806-5e-3 -2.0983-0.58594-2.6549-1.882l-0.14172-0.31525-1.2311-2.8074c-0.39594-0.96328-1.3924-1.6085-2.4797-1.6085-1.4936 0-2.7086 1.2154-2.7086 2.7101 0 1.4944 1.215 2.7097 2.7086 2.7097 1.0126 0 1.9336-0.55759 2.4035-1.4556 0.01609-0.0307 0.04819-0.0506 0.0845-0.0489 0.03491 1e-3 0.06706 0.0231 0.081 0.0549l0.49716 1.1483c0.01394 0.0318 0.0084 0.0678-0.01325 0.0946-0.75278 0.91822-1.8659 1.4444-3.0529 1.4444-2.1765 0-3.9474-1.7712-3.9474-3.9474 0-2.1776 1.7709-3.9488 3.9474-3.9488 1.648 0 2.9775 0.88681 3.6479 2.4342 0.0062 0.0153 0.67453 1.5792 1.2618 2.9188 0.347 0.79079 0.62288 1.2737 1.5341 1.3044 0.86938 0.0297 1.5069-0.47828 1.5069-1.1846 0-0.6284-0.39106-0.78453-1.2737-1.0788-1.5243-0.50169-2.3511-1.0139-2.3511-2.2792 0-1.237 0.85472-2.0369 2.1765-2.0369 0.86869 0 1.5055 0.38163 1.9475 1.1662 0.01188 0.022 0.01463 0.0475 0.0077 0.0716-7e-3 0.0241-0.02375 0.0443-0.04609 0.0552l-0.82466 0.42106c-0.0405 0.0213-0.09013 8e-3 -0.11666-0.0282-0.28066-0.39315-0.59353-0.56734-1.0139-0.56734-0.54809 0-0.94616 0.37356-0.94616 0.88925 0 0.63581 0.49234 0.79084 1.3093 1.0478 0.10688 0.0338 0.21853 0.0692 0.33381 0.10644 1.282 0.41831 2.0243 0.92206 2.0243 2.2656z" fill="#bebebe" fill-rule="evenodd"/>
</svg>
