<?xml version="1.0" encoding="UTF-8"?>
<!-- Created with Inkscape (http://www.inkscape.org/) -->
<svg version="1.1" viewBox="0 0 16 16" xmlns="http://www.w3.org/2000/svg" xmlns:cc="http://creativecommons.org/ns#" xmlns:dc="http://purl.org/dc/elements/1.1/" xmlns:rdf="http://www.w3.org/1999/02/22-rdf-syntax-ns#">
  <metadata>
    <rdf:RDF>
      <cc:Work rdf:about="">
        <dc:format>image/svg+xml</dc:format>
        <dc:type rdf:resource="http://purl.org/dc/dcmitype/StillImage"/>
        <dc:title>Gnome Symbolic Icon Theme</dc:title>
      </cc:Work>
    </rdf:RDF>
  </metadata>
  <title>Gnome Symbolic Icon Theme</title>
  <defs>
    <clipPath id="clipPath6254">
      <rect x="26.999" y="221.5" width="1.8762" height="4.8783" color="#bebebe" fill="#bebebe"/>
    </clipPath>
    <clipPath id="clipPath6258">
      <rect x="26.966" y="221.28" width="2.8977" height="5.313" color="#bebebe" fill="#bebebe"/>
    </clipPath>
    <clipPath id="clipPath6262">
      <rect x="26.85" y="220.75" width="3.825" height="6.375" color="#bebebe" fill="#bebebe"/>
    </clipPath>
  </defs>
  <g transform="translate(-41 -488)" fill="#bebebe">
    <path transform="matrix(0 -.78431 .94118 0 -161.76 519.06)" d="m27.062 220.5a1.164 1.164 0 0 0-0.6875 2c0.80001 0.80001 0.80001 2.075 0 2.875a1.164 1.164 0 1 0 1.625 1.625c1.6896-1.6896 1.6896-4.4354 0-6.125a1.164 1.164 0 0 0-0.9375-0.375z" clip-path="url(#clipPath6262)" color="#000000" style="block-progression:tb;text-indent:0;text-transform:none"/>
    <path transform="matrix(0 -1.7255 1.8822 0 -372.49 542.53)" d="m27.062 221.12a0.55495 0.55495 0 0 0-0.25 0.9375c1.0327 1.0327 1.0327 2.7173 0 3.75a0.55495 0.55495 0 1 0 0.78125 0.78125c1.4568-1.4568 1.4568-3.8556 0-5.3125a0.55495 0.55495 0 0 0-0.53125-0.15625z" clip-path="url(#clipPath6258)" color="#000000" style="block-progression:tb;text-indent:0;text-transform:none"/>
    <path transform="matrix(0 -2.6667 2.8685 0 -593.37 566)" d="m27.125 221.31a0.3616 0.3616 0 0 0-0.21875 0.59375 0.3616 0.3616 0 0 0 0.03125 0.0312c1.1066 1.1066 1.1066 2.8934 0 4a0.3616 0.3616 0 1 0 0.5 0.5c1.383-1.383 1.383-3.617 0-5a0.3616 0.3616 0 0 0-0.3125-0.125z" clip-path="url(#clipPath6254)" color="#000000" style="block-progression:tb;text-indent:0;text-transform:none"/>
    <path transform="matrix(2 0 0 2 -6.9998 83)" d="m29 209a1 1 0 1 1-2 0 1 1 0 1 1 2 0z"/>
  </g>
</svg>
